<?xml version="1.0" encoding="UTF-8" standalone="no" ?>
<!DOCTYPE svg PUBLIC "-//W3C//DTD SVG 1.1//EN" "http://www.w3.org/Graphics/SVG/1.1/DTD/svg11.dtd">
<svg xmlns="http://www.w3.org/2000/svg" xmlns:xlink="http://www.w3.org/1999/xlink" version="1.1" width="512" height="512" viewBox="0 0 512 512" xml:space="preserve">
<desc>Created with Fabric.js 3.6.3</desc>
<defs>
</defs>
<rect x="0" y="0" width="100%" height="100%" fill="rgba(36, 222, 128, 0)"></rect>
<g transform="matrix(1 0 0 1 254.67 256.33)"  >
<g style=""   >
		<g transform="matrix(-1 0 0 -1 -0.33 -61.84)"  >
<polygon style="stroke: rgb(255,255,255); stroke-width: 8; stroke-dasharray: none; stroke-linecap: butt; stroke-dashoffset: 0; stroke-linejoin: miter; stroke-miterlimit: 4; fill: none; fill-rule: nonzero; opacity: 1;"  points="0,-50 35,0 0,50 -35,0 " />
</g>
		<g transform="matrix(1 0 0 1 -44.66 -0.5)"  >
<polygon style="stroke: rgb(255,255,255); stroke-width: 8; stroke-dasharray: 1 10; stroke-linecap: butt; stroke-dashoffset: 0; stroke-linejoin: miter; stroke-miterlimit: 4; fill: rgb(255,255,255); fill-opacity: 0; fill-rule: nonzero; opacity: 1;"  points="0,-50 35,0 0,50 -35,0 " />
</g>
		<g transform="matrix(-1 0 0 -1 44.67 -1.17)"  >
<polygon style="stroke: rgb(255,255,255); stroke-width: 8; stroke-dasharray: 15 15; stroke-linecap: square; stroke-dashoffset: 0; stroke-linejoin: miter; stroke-miterlimit: 4; fill: none; fill-rule: nonzero; opacity: 1;"  points="0,-50 35,0 0,50 -35,0 " />
</g>
		<g transform="matrix(-1 0 0 -1 -0.33 61.83)"  >
<polygon style="stroke: rgb(255,255,255); stroke-width: 8; stroke-dasharray: 1 10; stroke-linecap: round; stroke-dashoffset: 0; stroke-linejoin: miter; stroke-miterlimit: 4; fill: none; fill-rule: nonzero; opacity: 1;"  points="0,-50 35,0 0,50 -35,0 " />
</g>
</g>
</g>
</svg>